# xmcd CD database file
#
# Track frame offsets:
#	150
#	19797
#	34735
#
# Disc length: 723 seconds
#
# Revision: 0
# Processed by: cddbd v1.5.1PL0 Copyright (c) Steve Scherf et al.
# Submitted via: CDex 1.40Release
#
DISCID=1a02d103
DTITLE=VANILLA - WILD MOON
DYEAR=1900
DGENRE=ロック (日本)
TTITLE0=WILD MOON
TTITLE1=現実 ? 満開
TTITLE2=WILD MOON （Backing Track）
EXTD=
EXTT0=
EXTT1=
EXTT2=
PLAYORDER=
